<svg viewBox="0 0 445.98 267.25" xmlns="http://www.w3.org/2000/svg"><g fill="#fff"><path d="m268.33 26.49h103.86l22.01-26.49h-152.36v183.18l26.49-31.87z"/><path d="m419.5 177.65h-104.29l-22.01 26.49h152.78v-183.32l-26.48 31.88z"/><path d="m445.98 0h-34.51l-66.61 80.16-20.31-27.18h-34.52l36.67 49.04-84.86 102.12h34.52l66.68-80.25 20.39 27.28h34.51l-36.73-49.15z"/><path d="m15.91 186.52v-13.79c0-3.85 2.24-5.93 5.74-6.16v-11.84c-10.72.08-21.09 5.59-21.09 17.79v14.06c0 13.2 10.44 18.07 21.09 18.2v-11.86c-3.77-.24-5.74-2.55-5.74-6.41"/><path d="m28.48 172.19v1.56h14.27v-2.99c0-10.51-9.12-15.08-17.92-15.9v12.13c2.04.75 3.66 2.46 3.66 5.19"/><path d="m42.75 185.77h-14.27v1.56c0 2.73-1.62 4.44-3.66 5.19v12.15c8.83-.76 17.92-5.31 17.92-15.71v-3.19z"/><path d="m69.58 166.95c3.67 0 5.37 2.65 5.37 5.3 0 2.79-1.9 5.3-5.43 5.3h-2.8v10.39h.01l7.81 16.03h16.71l-10.19-18.55c5.98-2.85 8.69-8.49 8.69-14.47 0-8.08-5.3-15.42-18.21-15.42h-4.84v11.41h2.87z"/><path d="m63.53 187.95h.01v-10.4h-.01v-10.6h.01v-11.41h-15.22v48.44h15.21z"/><path d="m114.94 204.76v-12.01c-3.12-.58-4.74-2.91-4.74-6.7v-12.91c0-3.83 1.64-5.92 4.74-6.41v-11.97c-10.66.46-20.09 6.28-20.09 18.85v12.43c0 13.59 9.56 18.3 20.09 18.72"/><path d="m122.84 173.14v13.18c0 3.51-1.77 5.86-4.73 6.44v12c10.2-.48 20.08-5.6 20.08-18.78v-12.36c0-13.43-9.66-18.35-20.08-18.84v12.03c2.65.61 4.73 2.71 4.73 6.33"/><path d="m157.41 169.13c0-1.57 1.15-2.36 2.9-2.7v-11.56c-11.11.72-17.92 8.12-17.92 16.64 0 7.07 4.69 11.75 11.35 13.59l6.57 1.83v-15.16c-1.77-.53-2.9-1.15-2.9-2.63"/><path d="m166.52 190.94c0 1.51-1.4 2.24-3.03 2.56v11.27c9.06-.41 19.13-5.08 19.13-16.68 0-6.45-4.14-11.28-12.16-13.52l-6.97-1.96v15.21c1.74.53 3.03 1.23 3.03 3.13"/><path d="m172.9 169.54 8.02-9.99c-5.21-3.09-9.39-4.59-17.43-4.74v11.43c2.91.16 7.01 1.4 9.42 3.3"/><path d="m147.97 188.76-7.2 10.6c6.14 4.26 12.29 5.28 19.55 5.42v-11.08c-4.59-.19-9.34-2.65-12.35-4.94"/><path d="m191.24 188.76-7.2 10.6c6.1 4.23 12.21 5.27 19.4 5.41v-11.08c-4.54-.23-9.23-2.67-12.2-4.94"/><path d="m200.69 169.13c0-1.53 1.09-2.32 2.76-2.67v-11.58c-11.02.77-17.77 8.15-17.77 16.64 0 7.07 4.69 11.75 11.35 13.59l6.43 1.79v-15.16c-1.69-.52-2.76-1.14-2.76-2.59"/><path d="m209.79 190.94c0 1.37-1.14 2.09-2.57 2.45v11.35c8.94-.55 18.67-5.26 18.67-16.66 0-6.45-4.14-11.28-12.16-13.52l-6.51-1.83v15.22c1.5.52 2.57 1.26 2.57 2.98"/><path d="m216.18 169.54 8.02-9.99c-5.11-3.03-9.23-4.53-16.97-4.73v11.44c2.87.26 6.68 1.48 8.95 3.27"/><path d="m0 217.42h15.38v49.03h-15.38z"/><path d="m18.56 254.48h19.6v11.96h-19.6z"/><path d="m18.56 236.05h14.85v11.83h-14.85z"/><path d="m18.56 217.42h19.6v11.9h-19.6z"/><path d="m101.1 217.42h15.4v49.03h-15.4z"/><path d="m125.51 217.42h-5.83v11.55h3.01c3.71 0 5.43 2.68 5.43 5.36s-1.92 5.36-5.5 5.36h-2.94v11.21h5.83c12.72 0 17.6-8.8 17.6-17.33s-5.36-16.16-17.6-16.16"/><path d="m167.33 236.05h14.83v11.83h-14.83z"/><path d="m148.74 217.42h15.4v49.03h-15.4z"/><path d="m167.33 254.48h19.58v11.96h-19.58z"/><path d="m167.33 217.42h19.58v11.9h-19.58z"/><path d="m208.91 239.7v-10.73h.02v-11.55h-15.42v49.03h15.4v-16.23h.02v-10.52z"/><path d="m235.45 233.03c0-8.18-5.36-15.61-18.43-15.61h-4.91v11.55h2.92c3.71 0 5.43 2.68 5.43 5.36 0 2.82-1.93 5.36-5.5 5.36h-2.85v10.52h.03l7.91 16.23h16.92l-10.31-18.77c6.05-2.89 8.8-8.6 8.8-14.65"/><path d="m241.84 217.42h15.4v49.03h-15.4z"/><path d="m264.12 217.42h15.35v49.03h-15.35z"/><path d="m282.66 217.42h19.62v11.9h-19.62z"/><path d="m282.66 254.48h19.62v11.96h-19.62z"/><path d="m282.66 236.05h14.88v11.83h-14.88z"/><path d="m339.82 239.42-16.02-22h-14.92v5.07l30.74 43.47.34.49h13.89v-7.71l-13.99-19.32z"/><path d="m308.88 266.45h13.89v-18.81l-13.89-19.64z"/><path d="m353.85 217.42h-13.89v16.73l13.89 19.18z"/><path d="m383.25 216.67v12.09c2.43.58 4.5 2.39 4.5 5.5v1.58h14.44v-3.03c0-10.95-9.79-15.53-18.94-16.15"/><path d="m375.02 248.77v-13.96c0-3.6 1.94-5.68 5.04-6.15v-12.05c-10.57.34-20.58 5.94-20.58 18v14.23c0 13.04 10.07 18.05 20.58 18.4v-12.05c-3.32-.49-5.04-2.79-5.04-6.43"/><path d="m402.18 251.25v-3.23h-14.44v1.58c0 3.11-2.07 4.92-4.5 5.5v12.11c9.18-.56 18.94-5.12 18.94-15.96"/><path d="m407.82 217.42h15.33v49.03h-15.33z"/><path d="m426.34 236.05h14.9v11.83h-14.9z"/><path d="m426.34 254.48h19.64v11.96h-19.64z"/><path d="m426.34 217.42h19.64v11.9h-19.64z"/><path d="m80.84 217.42-11.19 13.54-.01-.01-19.53 23.62-9.79 11.88h17.13l40.61-49.03z"/><path d="m71.88 257.06 7.06 9.46h15.05 2.24l-15.25-20.41-1.22-1.62-9.08 10.97z"/><path d="m66.5 226.75-7.03-9.4h-15.04-2.24l15.21 20.35 1.21 1.61 9.08-10.98z"/></g></svg>